# xmcd
#
# Track frame offsets:
#	150
#	15844
#	34219
#	53919
#	70946
#	90106
#	103808
#	119499
#	134480
#	150637
#	169476
#	182791
#	197984
#	226138
#
# Disc length: 3335 seconds
#
# Revision: 0
# Processed by: cddbd v1.5.1PL0 Copyright (c) Steve Scherf et al.
# Submitted via: dBpowerAMP V4.0
#
DISCID=ba0d050e
DTITLE=Big Blues Beat - At The Dew Drop In
DYEAR=1900
DGENRE=Blues
TTITLE0=Dew Drop Inn
TTITLE1=Time To Roll
TTITLE2=Everyday Blues
TTITLE3=Beggin' You Baby
TTITLE4=Sad and Lonesome
TTITLE5=Get My Mojo Back
TTITLE6=Hate To See You Go
TTITLE7=She's Got It All
TTITLE8=Surfin' Tango
TTITLE9=Talk Mama Talk
TTITLE10=Wings and Ribs
TTITLE11=Blues Is Here To Stay
TTITLE12=Cold Cold Rain
TTITLE13=Blue All Night
EXTD=
EXTT0=
EXTT1=
EXTT2=
EXTT3=
EXTT4=
EXTT5=
EXTT6=
EXTT7=
EXTT8=
EXTT9=
EXTT10=
EXTT11=
EXTT12=
EXTT13=
PLAYORDER=
